# xmcd CD database file
#
# Track frame offsets:
#	150
#	29730
#	38405
#	63917
#	86880
#	119847
#	141420
#	165422
#	196422
#	223362
#	244025
#
# Disc length: 3749 seconds
#
# Revision: 5
# Processed by: cddbd v1.5.2PL0 Copyright (c) Steve Scherf et al.
# Submitted via: CDex 1.51
#
DISCID=a70ea30b
DTITLE=Fred Hersch-Red Square Blue - Jazz Impressions of Russian Composers
DYEAR=1993
DGENRE=Jazz
TTITLE0=Mussorgsky - The Old Castle (from Pictures at an Exhibition)
TTITLE1=Gliere - Andante (from Concerto for Coloratura, Op. 82)
TTITLE2=Gliere - Aria (from Concerto for Coloratura, Op. 82)
TTITLE3=Scriabin - Prelude, Op. 11, No. 2
TTITLE4=Tchaikovsky - Canzona (from Symphony No. 4 in F minor)
TTITLE5=Scriabin - Etude, Op. 8, No. 2
TTITLE6=Scriabin - Prelude, Op. 9, No. 1
TTITLE7=Rimsky-Korsakoff - The Young Prince and The Young Princess (from Scheherazade)
TTITLE8=Liadov - Prelude, Op. 11, No. 1
TTITLE9=Tchaikovsky - Arabian Dance (from The Nutcracker)
TTITLE10=Rachmaninoff - Adagio (from Piano Concerto No. 2)
EXTD=YEAR: 1993
EXTT0=
EXTT1=
EXTT2=
EXTT3=
EXTT4=
EXTT5=
EXTT6=
EXTT7=
EXTT8=
EXTT9=
EXTT10=
PLAYORDER=
